<?xml version="1.0" encoding="utf-8"?>
<!-- Generator: Adobe Illustrator 27.8.1, SVG Export Plug-In . SVG Version: 6.00 Build 0)  -->
<svg version="1.1" id="Camada_1" xmlns="http://www.w3.org/2000/svg"
	xmlns:xlink="http://www.w3.org/1999/xlink" x="0px" y="0px"
	viewBox="0 0 36 28" width="36px" height="28px" style="enable-background:new 0 0 36 28;"
	xml:space="preserve">
<style type="text/css">
	.st0{
		fill:#140F46;
	}
</style>
<path class="st0" d="M20.8,14l9.9-9.9c0.8-0.8,0.8-2,0-2.8c-0.8-0.8-2-0.8-2.8,0L18,11.2L8.1,1.3c-0.8-0.8-2-0.8-2.8,0
	c-0.8,0.8-0.8,2,0,2.8l9.9,9.9l-9.9,9.9c-0.8,0.8-0.8,2,0,2.8c0.8,0.8,2,0.8,2.8,0l9.9-9.9l9.9,9.9c0.8,0.8,2,0.8,2.8,0
	c0.8-0.8,0.8-2,0-2.8L20.8,14z"/>
</svg>